<?xml version="1.0" standalone="no"?>
<!DOCTYPE svg PUBLIC "-//W3C//DTD SVG 20010904//EN"
 "http://www.w3.org/TR/2001/REC-SVG-20010904/DTD/svg10.dtd">
<svg version="1.0" xmlns="http://www.w3.org/2000/svg"
 width="512.000000pt" height="512.000000pt" viewBox="0 0 512.000000 512.000000"
 preserveAspectRatio="xMidYMid meet">
<metadata>
Created by potrace 1.16, written by Peter Selinger 2001-2019
</metadata>
<g transform="translate(0.000000,512.000000) scale(0.100000,-0.100000)"
fill="#000000" stroke="none">
<path d="M26 4824 l-26 -27 0 -2237 0 -2237 26 -27 27 -26 247 0 247 0 27 26
26 27 0 1203 0 1204 774 0 775 0 28 24 c24 21 28 32 28 76 0 44 -4 55 -28 76
l-28 24 -975 0 -974 0 0 860 0 860 2360 0 2360 0 0 -860 0 -860 -981 0 -981 0
-29 -29 c-41 -41 -41 -101 0 -142 l29 -29 781 0 781 0 0 -1204 0 -1203 26 -27
27 -26 247 0 247 0 27 26 26 27 0 2237 0 2237 -26 27 -27 26 -2507 0 -2507 0
-27 -26z m374 -3224 l0 -1130 -100 0 -100 0 0 1130 0 1130 100 0 100 0 0
-1130z m4520 0 l0 -1130 -100 0 -100 0 0 1130 0 1130 100 0 100 0 0 -1130z"/>
<path d="M714 4266 c-117 -54 -177 -147 -178 -276 -1 -63 4 -84 27 -132 34
-69 101 -131 165 -152 26 -9 80 -19 120 -22 64 -6 76 -10 97 -36 33 -39 33
-87 0 -120 -31 -31 -63 -38 -172 -38 -80 0 -86 -2 -114 -29 -22 -23 -29 -39
-29 -69 0 -87 64 -118 223 -109 151 9 235 55 292 159 27 48 30 61 30 148 0
107 -16 151 -80 215 -54 53 -107 76 -199 84 -97 9 -123 21 -142 67 -12 29 -12
39 0 68 19 46 42 56 123 56 96 0 140 14 163 53 24 38 25 68 5 107 -23 44 -43
50 -167 50 -98 0 -120 -3 -164 -24z"/>
<path d="M1408 4267 c-36 -34 -44 -78 -21 -125 21 -44 60 -61 146 -61 l57 -1
0 -350 c0 -376 3 -405 51 -431 13 -6 41 -12 63 -12 32 0 45 6 68 32 l28 31 0
364 0 363 82 5 c76 5 83 7 110 37 40 44 39 101 -1 142 l-29 29 -265 0 c-263 0
-264 0 -289 -23z"/>
<path d="M2459 4266 c-17 -16 -72 -156 -177 -447 -147 -404 -153 -425 -143
-461 14 -47 49 -71 102 -71 49 0 82 28 105 90 l17 43 193 0 193 0 24 -54 c28
-61 53 -79 111 -79 52 0 96 45 96 99 0 46 -342 836 -379 877 -34 37 -106 39
-142 3z m142 -506 l56 -130 -109 0 c-101 0 -110 1 -103 18 4 9 25 68 47 130
22 61 43 112 47 112 3 0 31 -58 62 -130z"/>
<path d="M3127 4264 c-16 -16 -28 -42 -32 -67 -3 -23 -5 -222 -3 -442 3 -447
3 -444 72 -463 45 -13 80 -5 111 25 23 24 25 32 25 121 l0 95 124 -121 c123
-121 125 -122 171 -122 64 0 105 39 105 101 0 41 -4 47 -127 171 l-127 128 35
0 c47 0 151 53 185 93 82 97 99 234 43 345 -34 69 -71 104 -144 138 -47 22
-62 24 -231 24 l-181 0 -26 -26z m377 -210 c53 -54 22 -142 -55 -158 -18 -3
-58 -6 -90 -6 l-59 0 0 95 0 95 89 0 c82 0 90 -2 115 -26z"/>
<path d="M3967 4265 c-30 -31 -38 -66 -25 -111 13 -48 46 -66 133 -72 l74 -5
3 -361 c3 -403 4 -406 72 -424 45 -13 80 -5 111 25 l25 26 0 368 0 369 54 0
c78 0 113 9 141 38 36 36 35 105 -2 144 l-27 28 -267 0 -266 0 -26 -25z"/>
<path d="M2513 2926 c-47 -21 -67 -58 -60 -109 8 -57 43 -87 103 -87 34 0 51
6 69 24 83 83 -6 219 -112 172z"/>
</g>
</svg>
