<?xml version="1.0" standalone="no"?>
<!DOCTYPE svg PUBLIC "-//W3C//DTD SVG 20010904//EN"
 "http://www.w3.org/TR/2001/REC-SVG-20010904/DTD/svg10.dtd">
<svg version="1.0" xmlns="http://www.w3.org/2000/svg"
 width="397.000000pt" height="394.000000pt" viewBox="0 0 397.000000 394.000000"
 preserveAspectRatio="xMidYMid meet">

<g transform="translate(0.000000,394.000000) scale(0.100000,-0.100000)"
fill="#000000" stroke="none">
<path d="M749 3917 c-113 -76 -106 -262 11 -329 l40 -23 0 -151 c0 -132 2
-153 18 -167 14 -13 46 -17 162 -19 l145 -3 3 -111 3 -111 -50 -30 c-60 -38
-115 -110 -136 -177 -8 -28 -15 -88 -15 -138 l0 -88 -274 0 c-262 0 -275 1
-281 19 -10 32 -81 89 -126 101 -123 33 -249 -68 -249 -201 0 -75 86 -170 169
-185 73 -14 163 28 197 92 l19 34 272 0 273 0 0 -195 0 -195 -274 0 c-262 0
-275 1 -281 19 -10 32 -81 89 -126 101 -123 33 -243 -61 -243 -190 0 -129 120
-223 243 -190 45 12 116 69 126 101 6 18 19 19 281 19 l274 0 0 -195 0 -195
-273 0 -272 0 -19 34 c-23 43 -63 73 -118 87 -140 38 -276 -99 -238 -240 28
-103 138 -168 239 -141 45 12 116 69 126 101 6 18 19 19 281 19 l274 0 0 -88
c0 -50 7 -110 15 -138 21 -67 76 -139 136 -177 l50 -30 -3 -111 -3 -111 -145
-3 c-116 -2 -148 -6 -162 -19 -16 -14 -18 -35 -18 -167 l0 -151 -40 -23 c-117
-67 -124 -253 -11 -329 29 -19 47 -23 117 -23 80 0 85 1 120 32 107 94 92 261
-28 324 -28 14 -28 15 -28 119 l0 105 140 0 c136 0 142 1 165 25 24 23 25 29
25 165 l0 140 65 0 65 0 0 -270 0 -269 -27 -15 c-121 -63 -136 -230 -29 -324
35 -31 40 -32 120 -32 98 0 136 19 174 88 28 50 32 135 8 181 -18 35 -73 88
-98 97 -17 5 -18 27 -18 275 l0 269 200 0 200 0 0 -268 0 -269 -37 -24 c-71
-46 -102 -117 -88 -205 5 -36 16 -56 54 -95 l47 -49 83 0 c100 0 131 14 172
78 33 52 39 128 15 186 -15 35 -70 93 -99 102 -16 5 -17 27 -17 275 l0 269
200 0 200 0 0 -270 0 -269 -27 -15 c-100 -52 -134 -191 -70 -283 41 -59 72
-73 162 -73 93 0 132 19 170 84 27 47 34 122 14 173 -13 35 -55 80 -91 99
l-28 15 0 269 0 270 64 0 65 0 3 -145 c3 -122 6 -147 21 -162 15 -15 41 -19
165 -23 l147 -5 3 -97 3 -97 -46 -31 c-99 -68 -120 -191 -48 -288 36 -49 71
-62 161 -62 75 0 80 1 119 35 102 87 93 239 -18 312 l-39 26 0 139 c0 134 -7
172 -34 190 -6 4 -75 8 -153 8 l-143 0 0 114 0 114 33 21 c45 28 102 89 126
136 23 45 41 143 41 223 l0 52 268 0 267 0 22 -35 c37 -57 94 -88 161 -89 111
0 191 71 200 179 11 136 -120 245 -250 206 -43 -13 -114 -71 -123 -102 -6 -18
-19 -19 -276 -19 l-269 0 0 195 0 195 269 0 c257 0 270 -1 276 -19 10 -32 81
-89 127 -101 80 -22 163 9 213 79 26 37 30 51 30 111 0 60 -4 74 -30 111 -50
70 -133 101 -213 79 -46 -12 -117 -69 -127 -101 -6 -18 -19 -19 -276 -19
l-269 0 0 195 0 195 269 0 c257 0 270 -1 276 -19 9 -31 80 -89 123 -102 130
-39 261 70 250 206 -9 108 -89 179 -200 179 -67 -1 -124 -32 -161 -89 l-22
-35 -267 0 -268 0 0 53 c0 79 -18 177 -41 222 -24 47 -81 108 -126 136 l-33
21 0 114 0 114 143 0 c78 0 147 4 153 8 27 18 34 56 34 190 l0 139 39 26 c111
73 120 225 18 312 -39 34 -44 35 -119 35 -112 0 -164 -33 -194 -122 -28 -85 4
-175 81 -228 l46 -31 -3 -97 -3 -97 -147 -5 c-124 -4 -150 -8 -165 -23 -15
-15 -18 -40 -21 -162 l-3 -145 -65 0 -64 0 0 270 0 269 28 15 c15 8 39 27 54
43 78 82 59 233 -36 292 -44 28 -173 30 -217 4 -121 -72 -114 -274 12 -339
l29 -15 0 -269 0 -270 -200 0 -200 0 0 269 c0 248 1 270 18 275 28 9 83 67 98
102 24 58 18 134 -15 186 -41 64 -72 78 -172 78 l-83 0 -47 -49 c-38 -39 -49
-59 -54 -95 -14 -88 17 -159 88 -205 l37 -24 0 -269 0 -268 -200 0 -200 0 0
268 1 267 40 25 c116 71 122 252 10 327 -29 19 -47 23 -117 23 -80 0 -85 -1
-120 -32 -107 -94 -92 -261 29 -324 l27 -15 0 -269 0 -270 -65 0 -65 0 0 140
c0 193 3 190 -190 190 l-140 0 0 105 c0 104 0 105 28 119 120 63 135 230 28
324 -35 31 -40 32 -120 32 -70 0 -88 -4 -117 -23z m160 -123 c12 -15 21 -32
21 -39 0 -24 -41 -65 -66 -65 -57 0 -87 83 -42 114 33 23 64 19 87 -10z m589
10 c48 -33 17 -114 -44 -114 -23 0 -64 42 -64 65 0 23 41 65 64 65 12 0 32 -7
44 -16z m530 0 c44 -30 15 -114 -40 -114 -29 0 -68 38 -68 67 0 29 33 63 63
63 12 0 33 -7 45 -16z m532 -4 c11 -11 20 -31 20 -45 0 -31 -33 -65 -62 -65
-29 0 -68 38 -68 67 0 30 34 63 65 63 14 0 34 -9 45 -20z m599 -7 c23 -28 21
-54 -7 -85 -33 -39 -102 -9 -102 44 0 66 69 92 109 41z m-352 -922 c24 -14 55
-42 70 -64 l28 -40 0 -797 0 -797 -28 -40 c-15 -22 -46 -50 -70 -64 l-42 -24
-744 -3 c-521 -2 -760 1 -798 8 -64 14 -118 56 -144 115 -17 38 -19 86 -19
805 0 724 1 767 19 805 26 56 72 96 128 111 38 10 207 13 803 11 l755 -2 42
-24z m-2562 -325 c23 -17 24 -71 2 -93 -22 -22 -76 -21 -93 2 -19 25 -18 70 2
89 19 20 64 21 89 2z m3581 -12 c34 -51 -25 -121 -78 -93 -29 15 -38 28 -38
58 0 60 84 85 116 35z m-3601 -504 c51 -19 54 -90 4 -115 -53 -28 -101 16 -85
78 4 19 24 36 53 46 1 1 13 -3 28 -9z m3602 -27 c33 -50 -20 -113 -76 -92 -14
6 -29 16 -33 22 -14 21 -8 64 10 79 37 33 74 29 99 -9z m-3578 -519 c21 -19
18 -74 -4 -90 -45 -33 -105 -7 -105 45 0 62 64 88 109 45z m3574 -6 c22 -26
22 -50 -1 -78 -35 -44 -112 -17 -112 39 1 65 69 89 113 39z m-2914 -1254 c12
-15 21 -32 21 -39 0 -23 -41 -65 -64 -65 -59 0 -88 68 -46 110 28 28 64 25 89
-6z m589 10 c18 -12 22 -24 20 -52 -5 -65 -90 -85 -116 -27 -16 34 -15 38 9
69 23 30 54 33 87 10z m532 -4 c27 -27 26 -75 -2 -94 -31 -22 -64 -20 -88 4
-26 26 -25 60 0 88 26 27 64 28 90 2z m530 0 c40 -40 11 -110 -45 -110 -31 0
-65 33 -65 63 0 31 35 67 65 67 14 0 34 -9 45 -20z m592 3 c28 -32 30 -58 7
-86 -39 -51 -109 -25 -109 39 0 55 68 86 102 47z"/>
<path d="M1352 2614 l-22 -15 0 -629 0 -629 22 -15 c20 -14 97 -16 639 -16
l618 0 20 26 c21 26 21 35 21 634 0 599 0 608 -21 634 l-20 26 -618 0 c-542 0
-619 -2 -639 -16z m1163 -644 l0 -525 -527 -3 -528 -2 0 530 0 530 528 -2 527
-3 0 -525z"/>
<path d="M1590 1970 l0 -400 263 2 262 3 0 65 0 65 -197 3 -198 2 0 330 0 330
-65 0 -65 0 0 -400z"/>
<path d="M1854 2356 c-3 -7 -4 -38 -2 -67 l3 -54 197 -3 198 -2 2 -328 3 -327
63 -3 62 -3 0 401 0 400 -260 0 c-211 0 -262 -3 -266 -14z"/>
</g>
</svg>
